<svg width="1440" height="829" viewBox="0 0 1440 829" fill="none" xmlns="http://www.w3.org/2000/svg">
<g clip-path="url(#clip0_589_730)">
<path d="M1440 -18.708H0V828.351H1440V-18.708Z" fill="#F8FDFF"/>
<path d="M1440 627.801H0V828.351H1440V627.801Z" fill="#82B2C2" fill-opacity="0.1"/>
<path d="M1440 602.932H0V627.801H1440V602.932Z" fill="#076787"/>
<g style="mix-blend-mode:multiply" opacity="0.4">
<path d="M1440 627.801H0V629.58H1440V627.801Z" fill="#C1B5AA"/>
</g>
<g style="mix-blend-mode:multiply" opacity="0.4">
<path d="M1440 600.695H0V602.932H1440V600.695Z" fill="#076787"/>
</g>
<g style="mix-blend-mode:multiply" opacity="0.3">
<path d="M98.9179 656.94C123.048 656.94 142.609 652.86 142.609 647.826C142.609 642.792 123.048 638.711 98.9179 638.711C74.7878 638.711 55.2266 642.792 55.2266 647.826C55.2266 652.86 74.7878 656.94 98.9179 656.94Z" fill="#BDCFD5"/>
</g>
<g style="mix-blend-mode:multiply" opacity="0.4">
<path d="M159.247 537.403C158.4 530.813 158.959 523.461 154.791 518.277C150.37 512.771 141.95 511.974 135.377 514.516C128.803 517.057 123.636 522.224 118.723 527.289C113.506 532.778 108.084 538.47 105.035 545.433L104.882 545.84C104.696 543.163 104.442 540.503 104.103 537.844C107.08 532.326 110.419 527.012 114.098 521.936C126.731 502.863 134.843 481.157 137.816 458.474C126.449 477.059 113.167 494.61 104.357 514.431C103.341 516.718 102.392 519.039 101.528 521.411C100.461 515.651 99.3088 509.891 98.3262 504.114C98.34 501.394 97.9226 498.689 97.0895 496.101L96.937 495.101C99.543 487.778 103.968 481.237 109.795 476.093C112.709 473.586 115.911 471.451 118.757 468.876C124.185 463.795 128.041 457.263 129.866 450.056C131.692 442.849 131.411 435.269 129.058 428.217L120.587 445.548C118.913 449.339 116.828 452.935 114.37 456.272C111.591 459.66 108.05 462.472 105.052 465.708C100.729 470.481 97.6658 476.257 96.1408 482.514C96.3441 474.043 97.7163 465.759 98.1568 457.373C106.289 439.805 122.705 425.879 126.381 406.82C122.23 412.462 114.946 414.969 110.354 420.272C107.714 423.682 105.706 427.538 104.425 431.656C102.731 436.298 100.037 441.973 98.1229 447.733V446.852C97.0099 431.873 94.324 417.053 90.1097 402.636C89.8387 401.789 88.4156 401.891 88.5173 402.856C89.2457 417.646 94.4467 432.046 95.4293 446.903C96.3102 460.456 91.7361 473.823 91.6175 487.562C75.4217 469.774 81.0801 449.834 65.5112 430.843C53.6523 421.712 49.4001 415.698 38.4053 416.867C49.3237 426.008 58.5601 436.987 65.6975 449.309C67.0562 451.43 68.0578 453.759 68.6622 456.204C68.9708 458.84 69.0671 461.498 68.9502 464.149C69.5601 483.7 88.8561 497.845 94.5992 515.871L94.8194 515.566C95.8698 521.394 97.0048 527.204 97.9874 533.032C97.5977 534.608 97.242 536.166 96.9201 537.742C95.6863 534.845 94.2951 532.017 92.7526 529.271C82.0796 510.399 69.6617 492.255 66.4937 470.892C65.8669 470.367 65.0537 471.299 64.7996 472.061C60.6812 483.912 61.0062 496.855 65.7145 508.485C69.3737 517.463 75.5234 525.222 82.1643 532.287C84.19 534.251 85.9859 536.439 87.5177 538.809C90.906 544.637 95.0227 550.956 95.3784 557.699H89.2796C82.9893 557.699 76.9566 560.197 72.5087 564.645C68.0608 569.093 65.562 575.126 65.562 581.416L78.3187 642.523C78.5236 643.619 79.1043 644.61 79.9608 645.324C80.8174 646.039 81.8961 646.432 83.0114 646.436H120.282C121.383 646.437 122.45 646.058 123.305 645.364C124.159 644.669 124.749 643.702 124.975 642.625L137.731 581.518C137.731 575.228 135.233 569.195 130.785 564.747C126.337 560.299 120.304 557.8 114.014 557.8H110.829C110.829 556.801 110.71 555.801 110.609 554.802C110.128 552.187 110.221 549.499 110.88 546.924C111.998 543.79 114.912 541.706 117.656 539.809L131.565 530.186C133.119 528.937 134.929 528.046 136.867 527.577C140.425 527.018 143.881 529.39 145.88 532.372C147.646 535.512 149.05 538.842 150.065 542.299C153.08 550.261 159.653 558.071 168.175 558.054C163.343 552.13 160.253 544.981 159.247 537.403Z" fill="#C1B5AA"/>
</g>
<path d="M101.647 547.128C104.628 540.097 109.999 534.405 115.318 528.916C120.231 523.833 125.381 518.751 131.971 516.142C138.562 513.533 146.964 514.448 151.386 519.903C155.554 525.087 154.995 532.44 155.842 539.03C156.83 546.608 159.903 553.763 164.719 559.698C156.248 559.698 149.624 551.905 146.609 543.943C145.594 540.486 144.19 537.155 142.424 534.015C140.425 531.033 136.969 528.662 133.411 529.221C131.493 529.714 129.706 530.622 128.177 531.88L114.268 541.418C111.523 543.316 108.61 545.399 107.491 548.534C106.833 551.109 106.74 553.797 107.22 556.411C107.999 564.669 107.299 572.998 105.154 581.01C93.82 576.182 98.2585 555.446 101.647 547.128Z" fill="#8A9636"/>
<path d="M98.3767 545.772C100.715 537.623 106.085 530.762 110.778 523.748C123.41 504.675 131.522 482.97 134.495 460.287C123.06 478.753 109.778 496.304 100.969 516.125C92.1593 535.946 88.1781 559.257 96.259 579.434C95.2256 570.032 95.7677 554.869 98.3767 545.772Z" fill="#8A9636"/>
<path d="M89.33 530.847C78.6909 512.093 66.273 493.949 63.105 472.586C62.4782 472.061 61.665 472.993 61.4109 473.755C57.2924 485.606 57.6175 498.549 62.3257 510.178C65.985 519.157 72.1347 526.916 78.7756 533.981C80.8012 535.945 82.5972 538.133 84.129 540.503C87.5173 546.331 91.634 552.65 91.9897 559.393C92.3286 565.661 97.8344 575.029 102.561 579.4C102.188 569.71 99.1558 548.194 89.33 530.847Z" fill="#8A9636"/>
<path d="M98.8007 577.757C106.983 549.465 96.3781 521.851 93.1763 493.661C91.4822 478.414 96.0224 463.726 94.7349 448.581C93.6218 433.601 90.936 418.781 86.7217 404.364C86.4506 403.517 85.0276 403.619 85.1292 404.584C85.8577 419.374 91.0586 433.774 92.0412 448.631C92.9899 463.15 87.6534 477.431 88.2803 492.255C89.4662 520.597 101.342 548.398 95.4972 576.961C95.3759 577.41 95.438 577.889 95.67 578.293C95.9019 578.696 96.2846 578.991 96.7339 579.112C97.1832 579.234 97.6623 579.171 98.0658 578.94C98.4693 578.708 98.7641 578.325 98.8854 577.876L98.8007 577.757Z" fill="#8A9636"/>
<path d="M101.646 467.504C104.644 464.268 108.185 461.524 110.963 458.068C113.422 454.731 115.506 451.135 117.181 447.344L125.651 430.013C128.005 437.065 128.286 444.645 126.46 451.852C124.635 459.059 120.779 465.591 115.351 470.672C112.505 473.247 109.303 475.382 106.389 477.889C97.7324 485.36 92.8364 495.66 90.7865 506.689C90.4307 492.645 91.803 478.177 101.646 467.504Z" fill="#8A9636"/>
<path d="M89.5503 490.611C71.7112 472.467 78.115 451.985 62.1225 432.486C50.2637 423.355 46.0114 417.341 35.0166 418.51C45.935 427.651 55.1715 438.63 62.3088 450.952C63.6676 453.073 64.6691 455.402 65.2735 457.847C65.5821 460.484 65.6784 463.141 65.5615 465.793C66.1714 485.343 85.4674 499.489 91.2105 517.514C97.2754 509.992 95.4458 496.609 89.5503 490.611Z" fill="#8A9636"/>
<path d="M101.088 433.384C102.369 429.266 104.377 425.41 107.017 422C111.608 416.697 118.876 414.19 123.044 408.548C119.012 429.471 99.614 444.125 92.685 464.302C91.1942 454.662 97.8182 442.092 101.088 433.384Z" fill="#8A9636"/>
<path d="M110.626 559.427H85.8915C79.6012 559.427 73.5685 561.926 69.1206 566.373C64.6726 570.821 62.1738 576.854 62.1738 583.144L74.9305 644.251C75.1424 645.341 75.7261 646.324 76.582 647.032C77.4378 647.739 78.5128 648.128 79.6232 648.131H116.894C117.995 648.131 119.062 647.752 119.917 647.058C120.771 646.364 121.361 645.397 121.587 644.319L134.343 583.212C134.352 580.092 133.745 577 132.557 574.115C131.369 571.23 129.624 568.607 127.42 566.397C125.217 564.188 122.6 562.435 119.718 561.239C116.836 560.042 113.746 559.427 110.626 559.427Z" fill="#7B6357"/>
<path d="M76.2345 568.372C91.1427 568.727 106.729 569.828 121.552 568.372C121.7 568.372 121.843 568.313 121.947 568.208C122.052 568.103 122.111 567.961 122.111 567.812C122.111 567.664 122.052 567.522 121.947 567.417C121.843 567.312 121.7 567.253 121.552 567.253C106.712 565.864 91.058 566.965 76.2345 567.253C76.1042 567.253 75.9792 567.305 75.8871 567.397C75.7949 567.489 75.7432 567.614 75.7432 567.745C75.7432 567.875 75.7949 568 75.8871 568.092C75.9792 568.184 76.1042 568.236 76.2345 568.236V568.372Z" fill="#6D564D"/>
<path d="M71.5752 592.869C89.5159 593.428 107.863 594.292 125.787 592.987C125.922 592.987 126.051 592.934 126.146 592.838C126.242 592.743 126.295 592.614 126.295 592.479C126.295 592.344 126.242 592.215 126.146 592.119C126.051 592.024 125.922 591.971 125.787 591.971C107.863 590.666 89.5159 591.53 71.5752 592.089C71.4719 592.089 71.3727 592.13 71.2997 592.203C71.2266 592.276 71.1855 592.376 71.1855 592.479C71.1855 592.582 71.2266 592.681 71.2997 592.754C71.3727 592.828 71.4719 592.869 71.5752 592.869Z" fill="#6D564D"/>
<path d="M77.9287 605.592C90.4144 605.913 103.154 606.54 115.623 605.592C115.753 605.592 115.878 605.54 115.97 605.448C116.062 605.355 116.114 605.231 116.114 605.1C116.114 604.97 116.062 604.845 115.97 604.753C115.878 604.661 115.753 604.609 115.623 604.609C103.154 603.711 90.4313 604.338 77.9287 604.609C77.8119 604.609 77.6999 604.655 77.6173 604.738C77.5347 604.821 77.4883 604.933 77.4883 605.049C77.4883 605.166 77.5347 605.278 77.6173 605.361C77.6999 605.443 77.8119 605.49 77.9287 605.49V605.592Z" fill="#6D564D"/>
<path d="M78.7751 617.908C91.7481 618.797 104.767 618.797 117.74 617.908C117.843 617.908 117.942 617.867 118.015 617.794C118.088 617.721 118.129 617.621 118.129 617.518C118.129 617.415 118.088 617.316 118.015 617.243C117.942 617.17 117.843 617.128 117.74 617.128C104.767 616.239 91.7481 616.239 78.7751 617.128C78.6493 617.128 78.5287 617.178 78.4397 617.267C78.3508 617.356 78.3008 617.477 78.3008 617.603C78.3008 617.729 78.3508 617.849 78.4397 617.938C78.5287 618.027 78.6493 618.077 78.7751 618.077V617.908Z" fill="#6D564D"/>
<path d="M80.8938 628.75C93.163 629.484 105.462 629.574 117.741 629.021C117.894 629.021 118.04 628.96 118.148 628.852C118.256 628.744 118.317 628.598 118.317 628.445C118.317 628.292 118.256 628.146 118.148 628.038C118.04 627.93 117.894 627.869 117.741 627.869C105.462 627.316 93.163 627.406 80.8938 628.14C80.8129 628.14 80.7354 628.172 80.6782 628.229C80.621 628.287 80.5889 628.364 80.5889 628.445C80.5889 628.526 80.621 628.603 80.6782 628.661C80.7354 628.718 80.8129 628.75 80.8938 628.75Z" fill="#6D564D"/>
<path d="M80.4704 639.83C90.8893 640.914 101.393 640.914 111.812 639.83C111.933 639.83 112.049 639.781 112.135 639.696C112.221 639.61 112.269 639.493 112.269 639.372C112.269 639.251 112.221 639.135 112.135 639.049C112.049 638.963 111.933 638.915 111.812 638.915C101.393 637.831 90.8893 637.831 80.4704 638.915C80.3715 638.915 80.2767 638.954 80.2068 639.024C80.1369 639.094 80.0977 639.189 80.0977 639.287C80.0977 639.386 80.1369 639.481 80.2068 639.551C80.2767 639.621 80.3715 639.66 80.4704 639.66V639.83Z" fill="#6D564D"/>
<path d="M70.3043 579.959C79.5542 580.4 88.7871 580.434 98.0539 580.451C107.321 580.468 116.689 581.365 125.787 580.247C125.921 580.247 126.051 580.194 126.146 580.099C126.241 580.003 126.295 579.874 126.295 579.739C126.295 579.604 126.241 579.475 126.146 579.38C126.051 579.284 125.921 579.231 125.787 579.231C116.74 578.113 107.151 578.994 98.0539 579.028C88.9565 579.061 79.5542 579.028 70.3043 579.536C70.2583 579.549 70.2178 579.577 70.1889 579.615C70.1601 579.653 70.1445 579.7 70.1445 579.748C70.1445 579.795 70.1601 579.842 70.1889 579.88C70.2178 579.918 70.2583 579.946 70.3043 579.959Z" fill="#6D564D"/>
<g style="mix-blend-mode:multiply" opacity="0.3">
<path d="M1055.43 765.685L1048.9 760.061L1045.46 757.096L1025.08 739.528L1022.98 737.733L1008 724.84L1002.73 720.3L990.736 709.966L988.669 708.187L971.305 693.228L968.018 690.399L957.87 681.657H578.032L572.289 686.604L564.564 693.279L547.318 708.187L545.251 709.966L533.291 720.283L528.022 724.84L511.623 738.986L510.979 739.545L493.292 754.826L487.227 760.061L480.705 765.685H1055.43Z" fill="#C1B5AA"/>
</g>
<path d="M1046.96 762.297H472.234L569.561 678.269H949.4L1046.96 762.297Z" fill="white"/>
<path d="M567.191 688.654C571.594 688.548 575.988 689.119 580.218 690.348C589.686 692.923 599.669 692.923 609.137 690.348C617.66 688.021 626.652 688.021 635.176 690.348C644.637 692.923 654.615 692.923 664.077 690.348C672.606 688.021 681.603 688.021 690.133 690.348C699.6 692.923 709.584 692.923 719.051 690.348C727.581 688.021 736.577 688.021 745.107 690.348C754.569 692.923 764.547 692.923 774.008 690.348C782.538 688.021 791.535 688.021 800.064 690.348C809.532 692.923 819.515 692.923 828.983 690.348C837.512 688.021 846.509 688.021 855.038 690.348C864.506 692.923 874.489 692.923 883.957 690.348C892.486 688.021 901.483 688.021 910.012 690.348C919.474 692.923 929.452 692.923 938.914 690.348C943.144 689.119 947.538 688.548 951.942 688.654C955.603 688.577 959.259 688.976 962.818 689.84L955.127 683.216C954.144 683.216 953.111 683.131 951.942 683.131C947.055 683.039 942.182 683.69 937.491 685.063C928.961 687.389 919.965 687.389 911.435 685.063C901.974 682.487 891.995 682.487 882.534 685.063C873.999 687.389 864.996 687.389 856.461 685.063C846.999 682.487 837.021 682.487 827.56 685.063C819.024 687.389 810.022 687.389 801.487 685.063C792.025 682.487 782.047 682.487 772.585 685.063C764.056 687.389 755.059 687.389 746.53 685.063C737.062 682.487 727.079 682.487 717.611 685.063C709.082 687.389 700.085 687.389 691.556 685.063C682.094 682.487 672.116 682.487 662.654 685.063C654.125 687.389 645.128 687.389 636.599 685.063C627.137 682.487 617.159 682.487 607.697 685.063C599.168 687.389 590.171 687.389 581.641 685.063C576.95 683.69 572.078 683.039 567.191 683.131C565.971 683.131 564.87 683.131 563.802 683.216L556.077 689.891C559.712 688.995 563.448 688.579 567.191 688.654Z" fill="#82B2C2"/>
<path d="M539.712 706.645C544.438 706.734 549.151 706.106 553.688 704.782C562.528 702.365 571.853 702.365 580.693 704.782C589.85 707.266 599.505 707.266 608.663 704.782C617.496 702.365 626.816 702.365 635.65 704.782C644.802 707.266 654.451 707.266 663.603 704.782C672.442 702.365 681.768 702.365 690.607 704.782C699.765 707.266 709.419 707.266 718.577 704.782C727.416 702.365 736.742 702.365 745.581 704.782C754.733 707.266 764.382 707.266 773.534 704.782C782.373 702.365 791.699 702.365 800.538 704.782C809.696 707.266 819.35 707.266 828.508 704.782C837.347 702.365 846.673 702.365 855.512 704.782C864.67 707.266 874.324 707.266 883.482 704.782C892.321 702.365 901.647 702.365 910.487 704.782C919.639 707.266 929.287 707.266 938.439 704.782C947.284 702.364 956.616 702.364 965.461 704.782C969.998 706.106 974.711 706.734 979.437 706.645C980.454 706.645 981.385 706.645 982.266 706.645L980.199 704.866H979.437C974.854 704.968 970.283 704.363 965.884 703.071C956.729 700.563 947.069 700.563 937.914 703.071C929.072 705.465 919.752 705.465 910.91 703.071C901.761 700.563 892.106 700.563 882.957 703.071C874.082 705.48 864.726 705.48 855.851 703.071C846.702 700.563 837.047 700.563 827.898 703.071C819.05 705.465 809.725 705.465 800.877 703.071C791.728 700.563 782.073 700.563 772.924 703.071C764.082 705.465 754.762 705.465 745.92 703.071C736.771 700.563 727.116 700.563 717.967 703.071C709.119 705.465 699.794 705.465 690.946 703.071C681.797 700.563 672.142 700.563 662.993 703.071C654.151 705.465 644.831 705.465 635.989 703.071C626.84 700.563 617.185 700.563 608.036 703.071C599.194 705.465 589.874 705.465 581.031 703.071C571.883 700.563 562.227 700.563 553.079 703.071C548.68 704.364 544.109 704.97 539.526 704.866H538.662L536.595 706.645C537.696 706.611 538.729 706.645 539.712 706.645Z" fill="#82B2C2"/>
<path d="M539.711 724.637C544.598 724.729 549.47 724.078 554.162 722.706C562.691 720.379 571.688 720.379 580.217 722.706C589.685 725.281 599.668 725.281 609.136 722.706C617.659 720.379 626.651 720.379 635.174 722.706C644.636 725.281 654.614 725.281 664.076 722.706C672.605 720.379 681.602 720.379 690.132 722.706C699.599 725.281 709.583 725.281 719.05 722.706C727.579 720.379 736.576 720.379 745.106 722.706C754.567 725.281 764.546 725.281 774.007 722.706C782.537 720.379 791.533 720.379 800.063 722.706C809.53 725.281 819.514 725.281 828.981 722.706C837.511 720.379 846.508 720.379 855.037 722.706C864.504 725.281 874.488 725.281 883.956 722.706C892.485 720.379 901.482 720.379 910.011 722.706C919.473 725.281 929.451 725.281 938.913 722.706C947.448 720.379 956.45 720.379 964.985 722.706C974.447 725.281 984.425 725.281 993.887 722.706C995.745 722.172 997.635 721.754 999.545 721.452L994.26 716.912L992.464 717.386C983.934 719.713 974.938 719.713 966.408 717.386C956.941 714.811 946.957 714.811 937.49 717.386C928.96 719.713 919.963 719.713 911.434 717.386C901.972 714.811 891.994 714.811 882.532 717.386C873.997 719.713 864.995 719.713 856.46 717.386C846.998 714.811 837.02 714.811 827.558 717.386C819.023 719.713 810.021 719.713 801.486 717.386C792.024 714.811 782.046 714.811 772.584 717.386C764.055 719.713 755.058 719.713 746.529 717.386C737.061 714.811 727.078 714.811 717.61 717.386C709.081 719.713 700.084 719.713 691.555 717.386C682.093 714.811 672.115 714.811 662.653 717.386C654.124 719.713 645.127 719.713 636.597 717.386C627.136 714.811 617.158 714.811 607.696 717.386C599.166 719.713 590.17 719.713 581.64 717.386C572.178 714.811 562.2 714.811 552.739 717.386C544.209 719.713 535.212 719.713 526.683 717.386C526.073 717.217 525.463 717.047 524.82 716.895L519.551 721.452C521.478 721.752 523.384 722.171 525.26 722.706C529.951 724.077 534.824 724.728 539.711 724.637Z" fill="#82B2C2"/>
<path d="M525.734 737.089C534.886 739.573 544.535 739.573 553.687 737.089C562.526 734.672 571.852 734.672 580.691 737.089C589.849 739.573 599.503 739.573 608.661 737.089C617.495 734.672 626.815 734.672 635.649 737.089C644.801 739.573 654.449 739.573 663.602 737.089C672.441 734.672 681.767 734.672 690.606 737.089C699.764 739.573 709.418 739.573 718.576 737.089C727.415 734.672 736.741 734.672 745.58 737.089C754.732 739.573 764.381 739.573 773.533 737.089C782.372 734.672 791.698 734.672 800.537 737.089C809.695 739.573 819.349 739.573 828.507 737.089C837.346 734.672 846.672 734.672 855.511 737.089C864.669 739.573 874.323 739.573 883.481 737.089C892.32 734.672 901.646 734.672 910.485 737.089C919.637 739.573 929.286 739.573 938.438 737.089C947.283 734.672 956.615 734.672 965.459 737.089C974.611 739.573 984.26 739.573 993.412 737.089C997.81 735.79 1002.38 735.179 1006.97 735.276C1010.21 735.231 1013.45 735.52 1016.64 736.14L1013.96 733.853C1011.64 733.564 1009.3 733.428 1006.97 733.447C1002.23 733.359 997.516 733.987 992.972 735.31C984.133 737.727 974.807 737.727 965.968 735.31C956.81 732.826 947.156 732.826 937.998 735.31C929.159 737.727 919.833 737.727 910.994 735.31C901.841 732.826 892.193 732.826 883.041 735.31C874.169 737.743 864.806 737.743 855.935 735.31C846.783 732.826 837.134 732.826 827.982 735.31C819.137 737.727 809.805 737.727 800.961 735.31C791.809 732.826 782.16 732.826 773.008 735.31C764.168 737.727 754.843 737.727 746.003 735.31C736.851 732.826 727.202 732.826 718.05 735.31C709.206 737.727 699.874 737.727 691.029 735.31C681.877 732.826 672.228 732.826 663.076 735.31C654.237 737.727 644.911 737.727 636.072 735.31C626.92 732.826 617.271 732.826 608.119 735.31C599.28 737.727 589.954 737.727 581.115 735.31C571.963 732.826 562.314 732.826 553.162 735.31C544.323 737.727 534.997 737.727 526.158 735.31C521.62 733.987 516.907 733.359 512.181 733.447C509.826 733.427 507.471 733.563 505.134 733.853L502.457 736.157C505.658 735.519 508.918 735.224 512.181 735.276C516.765 735.178 521.337 735.79 525.734 737.089Z" fill="#F2E8DD"/>
<path d="M1034.36 751.438C1029.97 751.542 1025.59 750.971 1021.38 749.744C1011.91 747.169 1001.93 747.169 992.463 749.744C983.934 752.071 974.937 752.071 966.408 749.744C956.94 747.169 946.957 747.169 937.489 749.744C928.96 752.071 919.963 752.071 911.434 749.744C901.972 747.169 891.994 747.169 882.532 749.744C873.997 752.07 864.994 752.07 856.459 749.744C846.998 747.169 837.02 747.169 827.558 749.744C819.023 752.07 810.02 752.07 801.485 749.744C792.023 747.169 782.045 747.169 772.584 749.744C764.054 752.071 755.057 752.071 746.528 749.744C737.061 747.169 727.077 747.169 717.609 749.744C709.08 752.071 700.083 752.071 691.554 749.744C682.092 747.169 672.114 747.169 662.652 749.744C654.123 752.071 645.126 752.071 636.597 749.744C627.135 747.169 617.157 747.169 607.695 749.744C599.166 752.071 590.169 752.071 581.64 749.744C572.178 747.169 562.2 747.169 552.738 749.744C544.209 752.071 535.212 752.071 526.682 749.744C517.221 747.169 507.243 747.169 497.781 749.744C493.573 750.971 489.202 751.543 484.821 751.438L478.756 756.673C480.749 756.869 482.75 756.965 484.753 756.961C489.64 757.052 494.512 756.401 499.204 755.03C507.733 752.703 516.73 752.703 525.259 755.03C534.721 757.605 544.699 757.605 554.161 755.03C562.69 752.703 571.687 752.703 580.217 755.03C589.684 757.605 599.668 757.605 609.135 755.03C617.659 752.703 626.65 752.703 635.174 755.03C644.635 757.605 654.614 757.605 664.075 755.03C672.605 752.703 681.602 752.703 690.131 755.03C699.598 757.605 709.582 757.605 719.049 755.03C727.579 752.703 736.576 752.703 745.105 755.03C754.567 757.605 764.545 757.605 774.007 755.03C782.536 752.703 791.533 752.703 800.062 755.03C809.53 757.605 819.513 757.605 828.981 755.03C837.51 752.703 846.507 752.703 855.036 755.03C864.504 757.605 874.487 757.605 883.955 755.03C892.484 752.703 901.481 752.703 910.01 755.03C919.472 757.605 929.45 757.605 938.912 755.03C947.447 752.703 956.449 752.703 964.985 755.03C974.446 757.605 984.424 757.605 993.886 755.03C1002.42 752.703 1011.42 752.703 1019.96 755.03C1024.66 756.4 1029.53 757.052 1034.43 756.961C1036.43 756.965 1038.43 756.869 1040.42 756.673L1034.36 751.438Z" fill="#F2E8DD"/>
<g style="mix-blend-mode:multiply" opacity="0.3">
<path d="M1152.63 652.722C1166.22 652.722 1177.23 649.908 1177.23 646.437C1177.23 642.965 1166.22 640.151 1152.63 640.151C1139.05 640.151 1128.03 642.965 1128.03 646.437C1128.03 649.908 1139.05 652.722 1152.63 652.722Z" fill="#BDCFD5"/>
</g>
<g style="mix-blend-mode:multiply" opacity="0.4">
<path d="M1171.88 543.739H1162.1L1161.9 541.842C1163.66 531.862 1166.65 522.138 1170.79 512.889C1174.61 504.995 1179.38 497.066 1179.45 488.307C1179.45 481.141 1176.37 474.128 1177.25 467.012L1165.71 487.206C1166.61 477.787 1166.56 464.217 1166.56 452.291C1161.32 460.371 1156.04 468.537 1152.78 477.601C1152.28 478.99 1151.8 480.548 1151.31 482.175C1151.31 480.808 1151.36 479.436 1151.46 478.058C1151.77 472.857 1152.34 467.656 1152.87 462.455C1155.94 462.455 1158.49 460.355 1156.8 455.475C1155.7 452.291 1159.44 451.376 1158.09 447.344C1157.83 446.581 1156.26 445.379 1156.09 444.582C1154.99 439.347 1158.51 434.265 1155.39 432.723C1153.29 431.843 1151.38 434.418 1151.04 436.705C1150.7 438.992 1150.85 441.635 1149.09 443.075C1148.42 443.478 1147.78 443.937 1147.18 444.447C1145.67 446.141 1147.18 448.784 1147.06 451.054C1146.95 452.024 1146.72 452.975 1146.36 453.883C1145.8 455.276 1145.77 456.829 1146.29 458.239C1146.81 459.65 1147.84 460.815 1149.18 461.507C1148.36 468.105 1147.93 474.746 1147.91 481.396C1143.95 465.952 1137.31 451.324 1128.29 438.179C1126.9 453.29 1127.32 457.678 1128.44 466.403C1129.13 471.875 1129.63 476.991 1130.13 481.819C1122.32 470.553 1115.58 461.371 1114.79 461.625C1112.55 480.108 1114.79 490.052 1124.95 505.249C1127.95 509.738 1143.03 520.089 1146.65 534.608C1147.08 536.217 1147.6 539.69 1148.19 543.807H1141.42C1141.12 543.806 1140.83 543.866 1140.56 543.983C1140.29 544.099 1140.05 544.27 1139.85 544.485C1139.65 544.7 1139.5 544.953 1139.4 545.23C1139.3 545.507 1139.26 545.801 1139.28 546.094L1146.38 641.727C1146.42 642.33 1146.69 642.895 1147.14 643.307C1147.58 643.719 1148.16 643.948 1148.77 643.946H1164.47C1165.08 643.948 1165.67 643.72 1166.11 643.309C1166.56 642.897 1166.83 642.332 1166.88 641.727L1173.96 546.094C1173.99 545.8 1173.96 545.503 1173.87 545.221C1173.78 544.94 1173.63 544.68 1173.44 544.459C1173.24 544.237 1173 544.059 1172.73 543.935C1172.46 543.811 1172.17 543.744 1171.88 543.739Z" fill="#C1B5AA"/>
</g>
<path d="M1149.4 479.362C1152.65 470.299 1157.87 462.133 1163.17 454.052C1163.17 468.774 1163.17 485.986 1161.48 494.847C1159.09 507.231 1155.33 522.342 1147.7 532.49C1140.2 519.547 1144.55 492.763 1149.4 479.362Z" fill="#8A9636"/>
<path d="M1151.24 525.256C1150.63 518.683 1150.01 512.11 1149.01 505.588C1145.13 480.057 1139.28 461.253 1124.9 439.805C1123.51 454.917 1123.93 459.304 1125.05 468.029C1127.88 490.222 1127.19 506.689 1144.52 520.835C1146.39 522.075 1147.96 523.705 1149.14 525.612C1151.62 530.695 1149.57 537.945 1150.45 543.265C1154.6 539.64 1151.85 530.728 1151.24 525.256Z" fill="#66741F"/>
<path d="M1148.47 446.412C1144.82 464.861 1142.86 485.377 1146.3 503.928C1150.09 524.257 1157.02 542.892 1154.43 563.95C1154.19 565.848 1157.33 566.237 1157.82 564.408C1161.88 546.704 1155.62 528.611 1151.55 511.517C1148.85 501.155 1147.71 490.45 1148.16 479.753C1148.8 468.724 1150.69 457.729 1150.62 446.683C1150.62 445.531 1148.79 445.209 1148.55 446.412H1148.47Z" fill="#66741F"/>
<path d="M1149.53 517.785C1140.21 502.538 1113.13 462.743 1111.48 463.251C1109.25 481.734 1111.48 491.679 1121.65 506.875C1124.65 511.364 1139.72 521.715 1143.35 536.234C1144.67 541.435 1147.33 565.441 1148.77 570.675C1156.95 556.631 1155.29 527.238 1149.53 517.785Z" fill="#8A9636"/>
<path d="M1159.48 493.847L1173.93 468.707C1173.05 475.822 1176.2 482.835 1176.13 490.002C1176.13 498.76 1171.29 506.689 1167.47 514.583C1162.71 524.426 1157.31 543.265 1157.05 557.14C1149.87 541.367 1150.97 508.688 1159.48 493.847Z" fill="#66741F"/>
<path d="M1168.49 545.433H1138.08C1137.79 545.432 1137.5 545.492 1137.23 545.609C1136.96 545.726 1136.72 545.897 1136.51 546.111C1136.31 546.326 1136.16 546.58 1136.06 546.856C1135.97 547.133 1135.93 547.427 1135.95 547.72L1143.04 643.353C1143.09 643.957 1143.36 644.522 1143.8 644.934C1144.24 645.346 1144.83 645.574 1145.43 645.572H1161.14C1161.74 645.574 1162.33 645.347 1162.78 644.935C1163.22 644.523 1163.5 643.958 1163.54 643.353L1170.63 547.72C1170.65 547.427 1170.61 547.133 1170.51 546.856C1170.41 546.58 1170.26 546.326 1170.06 546.111C1169.86 545.897 1169.61 545.726 1169.34 545.609C1169.07 545.492 1168.78 545.432 1168.49 545.433Z" fill="#7B6357"/>
<path d="M1143.91 555.496C1149.58 556.399 1155.36 556.456 1161.05 555.665C1161.3 555.665 1161.53 555.569 1161.7 555.397C1161.87 555.226 1161.97 554.993 1161.97 554.751C1161.97 554.508 1161.87 554.275 1161.7 554.104C1161.53 553.932 1161.3 553.836 1161.05 553.836C1155.36 553.045 1149.58 553.102 1143.91 554.005C1143.75 554.054 1143.61 554.153 1143.51 554.287C1143.41 554.421 1143.36 554.584 1143.36 554.751C1143.36 554.918 1143.41 555.08 1143.51 555.214C1143.61 555.349 1143.75 555.447 1143.91 555.496Z" fill="#6D564D"/>
<path d="M1145.8 567.457C1151.04 567.27 1156.55 567.897 1161.71 567.101C1161.91 567.046 1162.08 566.929 1162.21 566.767C1162.33 566.605 1162.4 566.407 1162.4 566.203C1162.4 565.999 1162.33 565.801 1162.21 565.639C1162.08 565.477 1161.91 565.359 1161.71 565.305C1156.63 564.509 1151.04 565.136 1145.8 564.949C1145.47 564.949 1145.15 565.081 1144.92 565.316C1144.68 565.552 1144.55 565.87 1144.55 566.203C1144.55 566.535 1144.68 566.854 1144.92 567.089C1145.15 567.324 1145.47 567.457 1145.8 567.457Z" fill="#6D564D"/>
<path d="M1146.53 581.01C1151.68 581.982 1156.95 582.12 1162.14 581.416C1162.32 581.364 1162.48 581.253 1162.6 581.1C1162.71 580.947 1162.78 580.761 1162.78 580.569C1162.78 580.378 1162.71 580.192 1162.6 580.039C1162.48 579.886 1162.32 579.775 1162.14 579.722C1156.95 579.019 1151.68 579.156 1146.53 580.129C1146.44 580.156 1146.35 580.213 1146.29 580.293C1146.23 580.372 1146.2 580.469 1146.2 580.569C1146.2 580.669 1146.23 580.766 1146.29 580.846C1146.35 580.925 1146.44 580.983 1146.53 581.01Z" fill="#6D564D"/>
<path d="M1146.65 593.868L1152.36 594.24C1154.04 594.539 1155.76 594.539 1157.44 594.24C1157.64 594.175 1157.81 594.05 1157.93 593.883C1158.05 593.716 1158.11 593.515 1158.11 593.309C1158.11 593.103 1158.05 592.902 1157.93 592.735C1157.81 592.568 1157.64 592.442 1157.44 592.377C1155.76 592.078 1154.04 592.078 1152.36 592.377L1146.65 592.75C1146.5 592.75 1146.35 592.81 1146.25 592.918C1146.14 593.026 1146.08 593.173 1146.08 593.326C1146.08 593.478 1146.14 593.625 1146.25 593.733C1146.35 593.841 1146.5 593.902 1146.65 593.902V593.868Z" fill="#6D564D"/>
<path d="M1148.35 608.116C1152.19 608.787 1156.11 608.884 1159.99 608.404C1160.14 608.355 1160.28 608.256 1160.38 608.122C1160.48 607.988 1160.54 607.825 1160.54 607.658C1160.54 607.491 1160.48 607.329 1160.38 607.194C1160.28 607.06 1160.14 606.961 1159.99 606.913C1156.11 606.432 1152.19 606.529 1148.35 607.201C1148.23 607.201 1148.11 607.249 1148.02 607.335C1147.94 607.42 1147.89 607.537 1147.89 607.658C1147.89 607.779 1147.94 607.896 1148.02 607.982C1148.11 608.067 1148.23 608.116 1148.35 608.116Z" fill="#6D564D"/>
<path d="M1148.62 622.245C1150.48 622.623 1152.38 622.799 1154.28 622.77C1156.19 623.025 1158.13 622.939 1160.02 622.516C1160.2 622.463 1160.36 622.352 1160.48 622.199C1160.59 622.046 1160.66 621.86 1160.66 621.669C1160.66 621.477 1160.59 621.291 1160.48 621.138C1160.36 620.985 1160.2 620.874 1160.02 620.822C1158.13 620.398 1156.19 620.312 1154.28 620.567C1152.38 620.538 1150.48 620.714 1148.62 621.093C1148.49 621.124 1148.37 621.198 1148.29 621.302C1148.21 621.407 1148.16 621.536 1148.16 621.669C1148.16 621.801 1148.21 621.93 1148.29 622.035C1148.37 622.139 1148.49 622.213 1148.62 622.245Z" fill="#6D564D"/>
<path d="M1142.98 455.509C1143.33 454.601 1143.57 453.65 1143.67 452.68C1143.82 450.41 1142.28 447.767 1143.79 446.073C1144.39 445.563 1145.03 445.104 1145.7 444.701C1147.4 443.261 1147.4 440.601 1147.65 438.331C1147.91 436.061 1149.9 433.469 1152.01 434.35C1155.12 435.959 1151.6 441.041 1152.7 446.208C1152.87 447.005 1154.39 448.208 1154.7 448.97C1156.05 453.002 1152.31 453.917 1153.41 457.102C1157.24 468.079 1139.67 465.183 1142.98 455.509Z" fill="#E29D36"/>
<path d="M1149.19 636.153C1151.49 636.629 1153.84 636.692 1156.16 636.34C1156.3 636.293 1156.43 636.201 1156.52 636.076C1156.62 635.951 1156.67 635.8 1156.67 635.645C1156.67 635.49 1156.62 635.34 1156.52 635.215C1156.43 635.09 1156.3 634.997 1156.16 634.951C1153.84 634.598 1151.49 634.661 1149.19 635.137C1149.06 635.137 1148.93 635.191 1148.83 635.286C1148.74 635.381 1148.69 635.51 1148.69 635.645C1148.69 635.78 1148.74 635.909 1148.83 636.005C1148.93 636.1 1149.06 636.153 1149.19 636.153Z" fill="#6D564D"/>
<g opacity="0.5">
<path d="M1302.72 325.733V277.059H1198.71V374.949H1251V325.733H1302.72Z" fill="#C6DBE3"/>
<rect x="1247.66" y="374.949" width="55.0631" height="55.0631" fill="#C6DBE3"/>
<rect x="1351.67" y="374.949" width="55.0631" height="55.0631" fill="#C6DBE3"/>
<path fill-rule="evenodd" clip-rule="evenodd" d="M1302.72 221.997H1406.16V274.285H1302.72V221.997ZM1457.31 325.438H1457.31V377.726H1406.16V326.576H1353.87V274.288H1457.31V325.438Z" fill="#C6DBE3"/>
</g>
<g opacity="0.5">
<rect x="47.0078" y="319.886" width="55.0631" height="55.0631" fill="#C6DBE3"/>
<path fill-rule="evenodd" clip-rule="evenodd" d="M-1.94043 166.933H101.499V219.221H-1.94043V166.933ZM152.649 270.374H152.652V322.662H101.5V271.513H49.2088V219.224H152.649V270.374Z" fill="#C6DBE3"/>
</g>
</g>
<defs>
<clipPath id="clip0_589_730">
<rect width="1440" height="828.351" fill="white"/>
</clipPath>
</defs>
</svg>
